# xmcd CD database file
#
# Track frame offsets:
#	150
#	15087
#	26847
#	44395
#	58107
#	76290
#	92542
#	110112
#	128695
#	139455
#	152212
#	165190
#
# Disc length: 2424 seconds
#
# Revision: 1
# Processed by: cddbd v1.5.1PL2 Copyright (c) Steve Scherf et al.
# Submitted via: CDex 1.51
#
DISCID=9209760c
DTITLE=Various Country Artists - 1990's Country
DYEAR=2003
DGENRE=Country
TTITLE0=Brooks and Dunn - Boot Scootin' Boogie
TTITLE1=Martina McBride - My Baby Loves Me
TTITLE2=Lonestar - Everything's Changed
TTITLE3=Tracy Byrd - Watermelon Crawl
TTITLE4=Kenny Chesney - That's Why I'm Here
TTITLE5=Sara Evans - No Place That Far
TTITLE6=Brad Paisley - He Didn't Have To Be
TTITLE7=Clint Black - When I Say I Do
TTITLE8=Diamond Rio - Unbelievable
TTITLE9=Alabama - I'm In A Hurry (And Don't Know Why)
TTITLE10=Pam Tillia - Mi Vida Loca (My Crazy Life)
TTITLE11=Restless Heart - When She Cries
EXTD=YEAR: 2003
EXTT0=
EXTT1=
EXTT2=
EXTT3=
EXTT4=
EXTT5=
EXTT6=
EXTT7=
EXTT8=
EXTT9=
EXTT10=
EXTT11=
PLAYORDER=
